<?xml version="1.0" encoding="UTF-8"?>
<svg id="Layer_1" data-name="Layer 1" xmlns="http://www.w3.org/2000/svg" viewBox="0 0 600 600">
  <defs>
    <style>
      .cls-1 {
        fill: #f1f2f2;
      }
    </style>
  </defs>
  <path class="cls-1" d="M528.68,430.76c-72,40.32-144,80.64-216,120.96-5.28-86.88-10.56-173.76-15.84-260.64,72.48-38.4,144.96-76.8,217.44-115.2,4.8,84.96,9.6,169.92,14.4,254.88Z"/>
  <path d="M554.57,300.07c0,27.87,.56,55.75-.13,83.6-1,39.74-18.03,72.05-51.72,92.74-49.35,30.32-99.63,59.23-150.49,86.95-35.04,19.09-72.03,18.15-106.94-1.17-48.45-26.82-96.38-54.6-143.89-83.05-36.68-21.96-55.49-55.4-55.85-98.26-.45-54.03-.45-108.07,0-162.09,.36-42.17,18.66-75.48,54.62-97.21,48.12-29.08,96.83-57.25,146.11-84.32,35.6-19.56,72.96-19.16,108.48,.46,48.47,26.77,96.38,54.6,143.9,83.04,36.7,21.96,55.24,55.41,55.89,98.27,.41,27.01,.08,54.03,.08,81.05h-.07Zm-64.37,35.79c6.6-10.38,13.68-19.74,18.77-30.07,4.01-8.15,7.14-17.39,7.88-26.37,1.26-15.25,.51-30.68,.29-46.03-.35-24.01-23.58-37.51-44.56-25.54-46.62,26.6-93.08,53.49-139.47,80.48-11.31,6.58-17.96,16.86-18.01,30.08-.25,60.56-.41,121.12,0,181.68,.13,19.95,20.44,31.61,37.8,21.76,45.69-25.91,91.01-52.48,136.49-78.77,34-19.66,41.19-88.33,.81-107.22Z"/>
</svg>